<mxfile host="65bd71144e">
    <diagram id="PbNdlPEyID_z_8yAHJ0z" name="Page-1">
        <mxGraphModel dx="1350" dy="1056" grid="1" gridSize="10" guides="1" tooltips="1" connect="1" arrows="1" fold="1" page="1" pageScale="1" pageWidth="850" pageHeight="1100" background="#CCCCCC" math="0" shadow="0">
            <root>
                <mxCell id="0"/>
                <mxCell id="1" parent="0"/>
                <mxCell id="38" style="edgeStyle=none;html=1;exitX=1;exitY=0.5;exitDx=0;exitDy=0;entryX=0;entryY=0.5;entryDx=0;entryDy=0;entryPerimeter=0;strokeColor=#707070;" edge="1" parent="1" source="2" target="32">
                    <mxGeometry relative="1" as="geometry"/>
                </mxCell>
                <mxCell id="2" value="User application&lt;br&gt;tenant#1" style="rounded=1;whiteSpace=wrap;html=1;strokeColor=#707070;fontColor=#FFFFFF;labelBackgroundColor=none;" parent="1" vertex="1">
                    <mxGeometry x="160" y="330" width="120" height="60" as="geometry"/>
                </mxCell>
                <mxCell id="6" value="Azure Active Directory&lt;br&gt;(Identity Provider)" style="aspect=fixed;html=1;points=[];align=center;image;fontSize=12;image=img/lib/azure2/intune/Azure_AD_Roles_and_Administrators.svg;strokeColor=#707070;fontColor=#000000;labelBackgroundColor=none;" parent="1" vertex="1">
                    <mxGeometry x="730" y="470.5" width="64" height="64" as="geometry"/>
                </mxCell>
                <mxCell id="7" value="Azure AD login page" style="rounded=1;whiteSpace=wrap;html=1;strokeColor=#707070;fontColor=#FFFFFF;labelBackgroundColor=none;" parent="1" vertex="1">
                    <mxGeometry x="610" y="470.5" width="78" height="70" as="geometry"/>
                </mxCell>
                <mxCell id="24" value="SAML authentication&lt;br&gt;request" style="edgeStyle=none;html=1;exitX=1;exitY=0.5;exitDx=0;exitDy=0;exitPerimeter=0;entryX=0;entryY=0.5;entryDx=0;entryDy=0;strokeColor=#707070;fontColor=#000000;labelBackgroundColor=none;" parent="1" source="17" target="7" edge="1">
                    <mxGeometry x="0.0026" relative="1" as="geometry">
                        <mxPoint as="offset"/>
                    </mxGeometry>
                </mxCell>
                <mxCell id="17" value="AWS Cognito&lt;br&gt;(Service Provider)" style="outlineConnect=0;dashed=0;verticalLabelPosition=bottom;verticalAlign=top;align=center;html=1;shape=mxgraph.aws3.cognito;strokeColor=#707070;fontColor=#000000;labelBackgroundColor=none;" parent="1" vertex="1">
                    <mxGeometry x="350" y="459" width="76.5" height="93" as="geometry"/>
                </mxCell>
                <mxCell id="30" value="Azure AD login page" style="rounded=1;whiteSpace=wrap;html=1;strokeColor=#707070;fontColor=#FFFFFF;labelBackgroundColor=none;" vertex="1" parent="1">
                    <mxGeometry x="610" y="170" width="78" height="70" as="geometry"/>
                </mxCell>
                <mxCell id="31" value="SAML authentication&lt;br&gt;request" style="edgeStyle=none;html=1;exitX=1;exitY=0.5;exitDx=0;exitDy=0;exitPerimeter=0;entryX=0;entryY=0.5;entryDx=0;entryDy=0;strokeColor=#707070;fontColor=#000000;labelBackgroundColor=none;" edge="1" parent="1" source="32" target="30">
                    <mxGeometry relative="1" as="geometry"/>
                </mxCell>
                <mxCell id="32" value="AWS Cognito&lt;br&gt;(Service Provider)" style="outlineConnect=0;dashed=0;verticalLabelPosition=bottom;verticalAlign=top;align=center;html=1;shape=mxgraph.aws3.cognito;strokeColor=#707070;fontColor=#000000;labelBackgroundColor=none;" vertex="1" parent="1">
                    <mxGeometry x="350" y="158.5" width="76.5" height="93" as="geometry"/>
                </mxCell>
                <mxCell id="33" value="Azure Active Directory&lt;br&gt;(Identity Provider)" style="aspect=fixed;html=1;points=[];align=center;image;fontSize=12;image=img/lib/azure2/intune/Azure_AD_Roles_and_Administrators.svg;strokeColor=#707070;fontColor=#000000;labelBackgroundColor=none;" vertex="1" parent="1">
                    <mxGeometry x="730" y="170" width="64" height="64" as="geometry"/>
                </mxCell>
                <mxCell id="39" style="edgeStyle=none;html=1;exitX=1;exitY=0.5;exitDx=0;exitDy=0;entryX=0;entryY=0.5;entryDx=0;entryDy=0;entryPerimeter=0;strokeColor=#707070;" edge="1" parent="1" source="34" target="17">
                    <mxGeometry relative="1" as="geometry"/>
                </mxCell>
                <mxCell id="34" value="User application&lt;br&gt;tenant#2" style="rounded=1;whiteSpace=wrap;html=1;strokeColor=#707070;fontColor=#FFFFFF;labelBackgroundColor=none;" vertex="1" parent="1">
                    <mxGeometry x="160" y="399" width="120" height="60" as="geometry"/>
                </mxCell>
                <mxCell id="40" value="login.virtualstore.jp" style="rounded=1;whiteSpace=wrap;html=1;fillColor=none;strokeColor=#4D4D4D;dashed=1;fontColor=#1A1A1A;labelPosition=center;verticalLabelPosition=top;align=center;verticalAlign=bottom;" vertex="1" parent="1">
                    <mxGeometry x="120" y="260.5" width="200" height="274" as="geometry"/>
                </mxCell>
            </root>
        </mxGraphModel>
    </diagram>
</mxfile>